# xmcd
#
# Track frame offsets:
#	150
#	9642
#	20531
#	30461
#	41571
#	51485
#	61368
#	71849
#	80988
#	91138
#	102725
#	115378
#	124882
#	136143
#	146227
#	157925
#	169284
#	180595
#
# Disc length: 2534 seconds
#
# Revision: 0
# Processed by: cddbd v1.5.2PL0 Copyright (c) Steve Scherf et al.
# Submitted via: EZCDAudioConverter 2.2.2.1
#
DISCID=0709e412
DTITLE=Eddie Noack - The Singles Collection 1949-1962
DYEAR=1900
DGENRE=Country
TTITLE0=Don't Trade
TTITLE1=Take It Away Lucky
TTITLE2=Left Over Lovin'
TTITLE3=I'll Be So Good To You
TTITLE4=If It Ain't On The Menu
TTITLE5=Wind Me Up
TTITLE6=Fair Today, Cold Tomorrow
TTITLE7=Don't Worry 'Bout Me Baby
TTITLE8=When The Bright Lights Go Dim
TTITLE9=It Ain't Much But It's Home
TTITLE10=For You I Weep
TTITLE11=You Done Got Me
TTITLE12=She Can't Stand The Light Of Day
TTITLE13=The Worm Has Turned
TTITLE14=Think Of Her Now
TTITLE15=Scarecrow
TTITLE16=Dust On The River
TTITLE17=What's The Matter Joe
EXTD=
EXTT0=
EXTT1=
EXTT2=
EXTT3=
EXTT4=
EXTT5=
EXTT6=
EXTT7=
EXTT8=
EXTT9=
EXTT10=
EXTT11=
EXTT12=
EXTT13=
EXTT14=
EXTT15=
EXTT16=
EXTT17=
PLAYORDER=
